{"title":"Hirokin The Last Samurai 2011 DVDRip Xvid AC3 - TODE","uid":7206351,"size":761454750,"categoryP":"video","categoryS":"movies","magnet":"?xt=urn:btih:0390ec91cf1941551092c4c9730b1bae905f0aa8&amp;dn=Hirokin+The+Last+Samurai+2011+DVDRip+Xvid+AC3+-+TODE&amp;tr=udp%3A%2F%2Ftracker.openbittorrent.com%3A80&amp;tr=udp%3A%2F%2Fopen.demonii.com%3A1337&amp;tr=udp%3A%2F%2Ftracker.coppersurfer.tk%3A6969&amp;tr=udp%3A%2F%2Fexodus.desync.com%3A6969","seeders":2,"leechers":1,"uploader":"HeroMaster","files":-1,"time":1335108185,"description":"Hirokin The Last Samurai 2011 DVDRip Xvid AC3 - TODE\n &lt;a href=&quot;\nhttp://www.imdb.com/title/tt1693679/&quot; rel=&quot;nofollow&quot; target=&quot;_NEW&quot;&gt;\nhttp://www.imdb.com/title/tt1693679/&lt;/a&gt;\n\nHirokin, a reluctant hero marked by a dark past, must fulfill his destiny when forced to choose between avenging the murder of his family or fighting for the freedom of a people long abused.\n\nDirector: Alejo Mo-Sun\nWriter: Alejo Mo-Sun\nStars:Wes Bentley, Jessica Szohr and Angus Macfadyen \n\nFormat : AVI\nFormat/Info : Audio Video Interleave\nFile size : 726 MiB\nDuration : 1h 41mn\nOverall bit rate : 1 002 Kbps\nWriting application : Lavf54.3.100\n\nVideo\nID : 0\nFormat : MPEG-4 Visual\nFormat profile : Simple@L3\nFormat settings, BVOP : No\nFormat settings, QPel : No\nFormat settings, GMC : No warppoints\nFormat settings, Matrix : Default (H.263)\nCodec ID : XVID\nCodec ID/Hint : XviD\nDuration : 1h 41mn\nBit rate : 799 Kbps\nWidth : 640 pixels\nHeight : 352 pixels\nDisplay aspect ratio : 16:9\nFrame rate : 25.000 fps\nColor space : YUV\nChroma subsampling : 4:2:0\nBit depth : 8 bits\nScan type : Progressive\nCompression mode : Lossy\nBits/(Pixel*Frame) : 0.142\nStream size : 579 MiB (80%)\nWriting library : XviD 64\n\nAudio\nID : 1\nFormat : AC-3\nFormat/Info : Audio Coding 3\nMode extension : CM (complete main)\nCodec ID : 2000\nDuration : 1h 41mn\nBit rate mode : Constant\nBit rate : 192 Kbps\nChannel(s) : 2 channels\nChannel positions : Front: L R\nSampling rate : 48.0 KHz\nBit depth : 16 bits\nCompression mode : Lossy\nStream size : 139 MiB (19%)\nAlignment : Aligned on interleaves\nInterleave, duration : 32 ms (0.80 video frame)\nTitle : VTS_01_1 T80 2_0ch 224Kbps DELAY 0ms_new\n\n\nPoster:\n\n &lt;a href=&quot;\nhttp://i.imgur.com/avL6V.jpg&quot; rel=&quot;nofollow&quot; target=&quot;_NEW&quot;&gt;\nhttp://i.imgur.com/avL6V.jpg&lt;/a&gt;\n\n\nScreenshots:\n\n &lt;a href=&quot;\nhttp://i.imgur.com/uTCQ1.jpg&quot; rel=&quot;nofollow&quot; target=&quot;_NEW&quot;&gt;\nhttp://i.imgur.com/uTCQ1.jpg&lt;/a&gt;\n\n\nENJOY!","torrent":{"xt":"urn:btih:0390ec91cf1941551092c4c9730b1bae905f0aa8","amp;dn":"Hirokin+The+Last+Samurai+2011+DVDRip+Xvid+AC3+-+TODE","amp;tr":["udp%3A%2F%2Ftracker.openbittorrent.com%3A80","udp%3A%2F%2Fopen.demonii.com%3A1337","udp%3A%2F%2Ftracker.coppersurfer.tk%3A6969","udp%3A%2F%2Fexodus.desync.com%3A6969"],"infoHash":"0390ec91cf1941551092c4c9730b1bae905f0aa8","infoHashBuffer":{"type":"Buffer","data":[3,144,236,145,207,25,65,85,16,146,196,201,115,11,27,174,144,95,10,168]},"announce":[],"urlList":[]}}